<svg width="13" height="24" viewBox="0 0 13 24" fill="none" xmlns="http://www.w3.org/2000/svg">
<path d="M2.00003 13.5C2.82846 13.5 3.50002 12.8284 3.5 12C3.49998 11.1715 2.82839 10.5 1.99997 10.5L2.00003 13.5ZM0.439317 10.9394C-0.146457 11.5252 -0.146436 12.4749 0.439363 13.0607L9.98551 22.6064C10.5713 23.1922 11.5211 23.1922 12.1068 22.6064C12.6926 22.0206 12.6926 21.0708 12.1068 20.485L3.62132 12L12.1064 3.51449C12.6922 2.92869 12.6922 1.97894 12.1064 1.39317C11.5206 0.807393 10.5708 0.807413 9.98505 1.39321L0.439317 10.9394ZM1.99997 10.5L1.49997 10.5L1.50003 13.5L2.00003 13.5L1.99997 10.5Z" fill="#9A9A9A"/>
</svg>
