<svg width="41" height="41" viewBox="0 0 41 41" fill="none" xmlns="http://www.w3.org/2000/svg">
<g clip-path="url(#clip0)">
<path d="M38 1.93954H3.00004C1.61874 1.93954 0.5 3.05953 0.5 4.43958V26.9395C0.5 28.3207 1.61874 29.4396 3.00004 29.4396H9.25008C10.0513 29.4396 10.5001 28.8733 10.5001 28.1896C10.5001 27.5058 10.0751 26.9233 9.25008 26.9233H4.52504C3.69007 26.9233 3.01251 26.2459 3.01251 25.4108V6.00833C3.01251 5.17336 3.68996 4.4958 4.52504 4.4958L36.4888 4.45704C37.3238 4.45704 38.0013 5.1345 38.0013 5.96957V25.4108C38.0013 26.2458 37.3239 26.9233 36.4888 26.9233H22.2737L28.7587 20.3459C29.2462 19.8521 29.2462 19.0534 28.7587 18.5596C28.27 18.0671 27.4787 18.0671 26.9912 18.5596L18.3662 27.3084C17.8787 27.8009 17.8787 28.6009 18.3662 29.0946C18.3662 29.0946 18.3662 29.0946 18.3675 29.0946L26.9912 37.8433C27.4787 38.3358 28.2712 38.3358 28.7587 37.8433C29.2462 37.3496 29.2462 36.5509 28.7587 36.0584L22.2362 29.4409H38C39.3812 29.4409 40.5 28.3222 40.5 26.9409V4.44083C40.5 3.05953 39.3813 1.93954 38 1.93954Z" fill="current"/>
</g>
<defs>
<clipPath id="clip0">
<rect width="40" height="40" fill="white" transform="translate(0.5 0.0761414)"/>
</clipPath>
</defs>
</svg>
