<svg width="49" height="48" viewBox="0 0 49 48" fill="none" xmlns="http://www.w3.org/2000/svg">
<path d="M42.6132 6.50213C41.9492 5.62322 40.6894 5.43767 39.8007 6.09197C38.9121 6.74627 38.7265 7.9865 39.3906 8.86541C45.7187 17.2541 45.7187 30.8967 39.3906 39.2853C38.7265 40.1642 38.8925 41.424 39.8007 42.0588C40.914 42.8302 42.2226 42.176 42.6132 41.6486C49.9277 31.9709 49.9277 16.1994 42.6132 6.50213V6.50213Z" fill="#69081F"/>
<path d="M37.7207 12.9865C37.0566 12.1076 35.7969 11.9318 34.9082 12.5764C34.0195 13.2306 33.834 14.4709 34.498 15.3498C38.0723 20.0764 38.0723 28.0744 34.498 32.801C33.834 33.6799 34.0098 34.9299 34.9082 35.5744C36.0508 36.3849 37.3301 35.6916 37.7207 35.1642C42.418 28.9533 42.418 19.2072 37.7207 12.9865V12.9865Z" fill="#69081F"/>
<path d="M27.6816 41.8049L13.5996 30.8283V17.3322L27.6816 6.36542V41.8049V41.8049ZM9.57617 29.8127H4.27344V18.3185H9.57617V29.8127ZM28.5898 0.496279L11.002 14.3537H2.26172C1.14844 14.3537 0.25 15.2424 0.25 16.3361V31.7853C0.25 32.8791 1.14844 33.7678 2.26172 33.7678H11.168L28.5898 47.508C29.8398 48.4943 31.7051 47.6154 31.7051 46.0334V1.97089C31.7051 0.388857 29.8496 -0.499815 28.5898 0.496279V0.496279Z" fill="#69081F"/>
</svg>
