<svg width="150" height="150" viewBox="0 0 1445 1445" fill="none" xmlns="http://www.w3.org/2000/svg">
<mask id="mask0" style="mask-type:alpha" maskUnits="userSpaceOnUse" x="0" y="0" width="1445" height="1445">
<circle cx="722.5" cy="722.5" r="722.5" fill="#C4C4C4"/>
</mask>
<g mask="url(#mask0)">
<circle cx="722.5" cy="720.5" r="686.5" fill="#131516"/>
<path d="M708.113 362.153C698.339 377.38 669.997 419.588 620.153 448.139C604.516 457.096 562.1 479.31 517.534 518.004C461.826 566.371 453.03 574.432 435.438 598.615C421.364 617.962 398.299 657.731 394.39 671.166C374.843 724.907 370.345 907.626 394.39 958.68C418.435 1009.73 459.623 1031.63 521.195 1063.88C582.767 1096.12 714.117 1101.5 766.893 1101.5C819.669 1101.5 924.636 1116.43 975 1081C1062.87 1019.18 1090.7 940.567 1106 907C1139.77 832.891 1139.5 722.5 1112.73 649.668C1088.12 582.744 1040.4 522.481 1015.97 501.88C1022.81 526.064 1027.78 575.992 998.379 630.859C972.648 678.875 938.762 705.201 928.012 714.158C940.717 657.729 958.504 522.839 928.012 434.704C889.896 324.535 848.848 276.169 831.256 254.673C796.337 212.004 727.964 170.31 719.841 166C741.342 201.827 741.659 309.889 708.113 362.153Z" fill="#FF0000"/>
<path d="M708.113 362.153C698.339 377.38 669.997 419.588 620.153 448.139C604.516 457.096 562.1 479.31 517.534 518.004C461.826 566.371 453.03 574.432 435.438 598.615C421.364 617.962 398.299 657.731 394.39 671.166C374.843 724.907 370.345 907.626 394.39 958.68C418.435 1009.73 459.623 1031.63 521.195 1063.88C582.767 1096.12 714.117 1101.5 766.893 1101.5C819.669 1101.5 924.636 1116.43 975 1081C1062.87 1019.18 1090.7 940.567 1106 907C1139.77 832.891 1139.5 722.5 1112.73 649.668C1088.12 582.744 1040.4 522.481 1015.97 501.88C1022.81 526.064 1027.78 575.992 998.379 630.859C972.648 678.875 938.762 705.201 928.012 714.158C940.717 657.729 958.504 522.839 928.012 434.704C889.896 324.535 848.848 276.169 831.256 254.673C796.337 212.004 727.964 170.31 719.841 166C741.342 201.827 741.659 309.889 708.113 362.153Z" fill="url(#paint0_linear)"/>
<path d="M612.898 644.5L1179.88 1212.72C1083.66 1190.5 1147.54 1313.43 1063.45 1266.03C979.373 1218.64 944.783 1205.31 939.109 1203.83C926.526 1200.55 921.197 1191.39 751.851 1165.33C540.167 1132.74 531.251 1118.84 501.679 1107.57C470.593 1095.72 302.553 993.027 281.854 835.801C267.399 726 261.485 696.061 286.295 607.725C311.46 518.124 361.79 467.77 364.751 458.143C367.581 448.942 434.325 388.536 471.333 380.39C508.341 372.245 537.512 374.114 576 383C615.986 392.232 607.888 435.019 612.898 443C621.373 456.5 641.398 484.114 652.5 493L652.819 493.255C661.675 500.341 681.527 516.225 683.5 533C684.98 545.589 684.5 538.5 687.5 548.168L679 546.263H656.5L638 544.855L625.672 548.091L619.172 553.091L613.575 558.184L606.914 566.329L600.992 575.956L598.032 584.842L596.552 592.247L597.5 600.5L599 613.5L601.5 622L612.898 644.5Z" fill="#57003A"/>
<path d="M616.398 648L1180.4 1212.72C1084.18 1190.5 1147.54 1313.43 1063.45 1266.03C979.373 1218.64 944.783 1205.31 939.108 1203.83C926.526 1200.55 921.197 1191.39 751.85 1165.33C540.166 1132.74 531.251 1118.84 501.678 1107.57C470.592 1095.72 305.357 992.632 281.853 835.801C265.398 726 261.923 694.5 286.294 607.725C311.459 518.124 361.79 467.77 364.75 458.143C367.58 448.942 433.992 390.146 471 382C508.008 373.854 535.512 382.114 574 391C613.986 400.232 601.339 425.335 608 432C615.727 439.731 641.898 493.114 653 502C661.689 508.954 681.503 515.021 683.5 532C684.98 544.589 690.428 540.589 685 547.5L673.5 546.263H657.11H640.827L630.5 549L622.5 553L613.5 561.5L609.741 567.738L603.819 577.365L599.378 585L597.898 592.5L597 598L596.5 602L597.898 612.909L599.378 620.314L603.819 628.5L613.898 645L616.398 648Z" fill="url(#paint1_linear)" fill-opacity="0.52"/>
<path d="M557.973 547.019C575.973 538.339 597.841 529.712 627.997 534.252C635.221 535.339 645.461 535.488 656.5 539.5C667.925 542.662 688 541 687.5 548C687.5 548 685.5 549.634 660.714 546.31C656.751 545.779 642.933 545.803 638.665 547.019C633.687 548.438 624.441 549.857 617.328 557.659C609.731 565.994 605.74 573 604.526 576.101C603 580 597.473 585.339 597.473 599.839C597.473 610.502 598.473 608.339 598.973 615.839C576.973 620.839 569.035 626.839 561.141 633.137C545.473 645.638 535.744 655.658 524.157 688.883C518.467 705.197 508.575 757.339 511.575 810.839C509.679 809.893 499.341 794.339 491.575 766.198C481.014 727.927 475.14 633.728 505.064 592.416C530.239 557.659 552.046 548.911 557.973 547.019Z" fill="#420325"/>
<path d="M677.5 513.5C680.091 517.646 685 529.223 686.5 533.723C688 538.223 690.786 545.079 689.5 547.223C688.214 549.367 680 548.381 677.5 547.223C654.844 536.725 622 529.223 586.257 539.921C578.888 541.801 559.5 545.223 552.223 552.766C534.828 567.121 493.133 589.87 488.898 678.723C483.603 789.79 511.898 810.723 511.898 810.723C676.898 772.723 895.059 994.688 905.398 1007.72C916.898 1022.22 947.898 1057.22 949.898 1078.72C949.898 1101.72 919.398 1114.13 905.398 1119.72C885.328 1127.74 850.065 1144.74 812.398 1153.72C773.115 1163.09 732.898 1167.03 703.484 1167.03C644.492 1163.26 539.398 1146.72 490.206 1112.63C434.638 1074.13 308.694 1003.08 276.929 844.411C254.325 731.502 268.727 666.002 280.229 610.846C291.732 555.691 354.811 466.85 360.398 458.224C365.16 450.871 418.355 390.984 469.5 379.743C507.315 371.432 533.467 372.328 573 381.223C606.5 388.761 620.028 425.72 623.528 434.22C631.891 454.531 623.028 457.22 662.528 493.72C667.398 498.22 672.5 505.5 677.5 513.5Z" fill="#480011"/>
<path d="M678 515C680.186 519.373 686 530 687.5 534.5C689 539 691.786 545.856 690.5 548C689.214 550.144 681 549.158 678.5 548C655.844 537.502 623 530 587.257 540.698C579.888 542.578 560.5 546 553.223 553.543C535.828 567.898 494.133 590.647 489.898 679.5C484.603 790.567 512.898 811.5 512.898 811.5C677.898 773.5 896.059 995.465 906.398 1008.5C917.898 1023 948.898 1058 950.898 1079.5C950.898 1102.5 920.398 1114.91 906.398 1120.5C886.328 1128.51 851.065 1145.52 813.398 1154.5C774.115 1163.87 733.898 1167.81 704.484 1167.81C645.492 1164.03 540.398 1147.5 491.206 1113.41C435.638 1074.9 309.694 1003.85 277.929 845.188C255.325 732.279 269.727 666.779 281.229 611.623C292.732 556.467 355.811 467.627 361.398 459.001C366.16 451.648 419.355 391.761 470.5 380.52C508.315 372.209 534.467 373.105 574 382C607.5 389.538 620.5 426 624 434.5C632.363 454.811 623.5 457.5 663 494C668.5 499.082 675.5 510 678 515Z" fill="url(#paint2_linear)" fill-opacity="0.5"/>
<circle cx="500.398" cy="441" r="16" fill="black"/>
</g>
<defs>
<linearGradient id="paint0_linear" x1="755.066" y1="166" x2="755.066" y2="1104.62" gradientUnits="userSpaceOnUse">
<stop stop-color="#FF7A00" stop-opacity="0"/>
<stop offset="0.973958" stop-color="#FFB800"/>
<stop offset="1" stop-color="#FF0000" stop-opacity="0"/>
</linearGradient>
<linearGradient id="paint1_linear" x1="723.398" y1="374" x2="1380.9" y2="942.5" gradientUnits="userSpaceOnUse">
<stop stop-color="#6B0000"/>
<stop offset="0.505208" stop-color="#AA0000" stop-opacity="0.494792"/>
<stop offset="1" stop-color="#FF0F00" stop-opacity="0.78"/>
</linearGradient>
<linearGradient id="paint2_linear" x1="557.398" y1="249" x2="1146.4" y2="881" gradientUnits="userSpaceOnUse">
<stop stop-color="#D90034"/>
<stop offset="1" stop-color="#480011" stop-opacity="0"/>
</linearGradient>
</defs>
</svg>
