<svg width="100" height="100" viewBox="0 0 930 956" fill="none" xmlns="http://www.w3.org/2000/svg">
<path d="M773.871 97.0982C806.138 112.617 870.062 195.908 891.95 241.162C924.619 308.709 936.372 386.512 926.742 460.55C926.043 466.216 925.403 471.771 924.619 477.381C904.631 584.609 842.155 680.971 749.525 747.443C656.895 813.914 540.841 845.666 424.275 836.43C307.709 827.195 206.687 777.643 127.476 697.556C48.2642 617.47 4.20661 512.666 4 403.839C4.95926 383.709 4.6121 361.427 8.70431 341.641L327 300.275C389.289 289.127 557.565 152.075 630.784 44.4655C634.487 39.0233 638.19 33.5699 641.797 27.8136C643.86 24.5258 645.512 21.5635 646.948 18.8368C649.984 13.3671 652.324 7.58666 653.92 1.61255C653.986 1.36643 654.436 0.642112 654.632 0.435154C654.827 0.228195 655.272 0.04042 655.566 0.00734528C655.854 -0.0661822 656.202 0.435217 656.248 0.49045C773.676 64.4501 825.581 254.285 829.2 313.532C829.2 314.716 829.549 316.701 829.724 317.546C835.633 309.764 836.315 280.795 835.5 263C834.511 241.405 826.395 215.032 821.175 198.068L821 197.5C813 171.5 786.97 114.068 773.871 97.0982Z" fill="black"/>
<path d="M773.871 97.0982C806.138 112.617 870.062 195.908 891.95 241.162C924.619 308.709 936.372 386.512 926.742 460.55C926.043 466.216 925.403 471.771 924.619 477.381C904.631 584.609 842.155 680.971 749.525 747.443C656.895 813.914 540.841 845.666 424.275 836.43C307.709 827.195 206.687 777.643 127.476 697.556C48.2642 617.47 4.20661 512.666 4 403.839C4.95926 383.709 4.6121 361.427 8.70431 341.641L327 300.275C389.289 289.127 557.565 152.075 630.784 44.4655C634.487 39.0233 638.19 33.5699 641.797 27.8136C643.86 24.5258 645.512 21.5635 646.948 18.8368C649.984 13.3671 652.324 7.58666 653.92 1.61255C653.986 1.36643 654.436 0.642112 654.632 0.435154C654.827 0.228195 655.272 0.04042 655.566 0.00734528C655.854 -0.0661822 656.202 0.435217 656.248 0.49045C773.676 64.4501 825.581 254.285 829.2 313.532C829.2 314.716 829.549 316.701 829.724 317.546C835.633 309.764 836.315 280.795 835.5 263C834.511 241.405 826.395 215.032 821.175 198.068L821 197.5C813 171.5 786.97 114.068 773.871 97.0982Z" fill="url(#paint0_linear)"/>
<path d="M347.5 323.5L914.481 891.718C818.261 869.502 882.138 992.426 798.057 945.034C713.975 897.642 679.386 884.312 673.711 882.831C661.129 879.547 655.8 870.391 486.453 844.325C274.769 811.743 265.854 797.837 236.281 786.566C205.195 774.718 37.1552 672.027 16.4562 514.801C2.00079 405 -3.91272 375.061 20.8971 286.725C46.0623 197.124 96.3926 146.769 99.3532 137.143C102.183 127.942 168.927 67.5354 205.935 59.3899C242.943 51.2443 271.068 50.5038 309.556 59.3899C349.542 68.6218 366.67 90.4366 373.331 97.1012C381.059 104.832 397.756 151.442 408.859 160.328C417.547 167.283 431.905 180.145 433.902 197.124C435.382 209.712 426.747 231.681 421.319 238.592L407.997 228.966L391.713 225.263H375.43L365.808 228.966L360.627 232.668L351.005 238.592L344.344 246.738L338.422 256.364L335.462 265.25L333.981 272.655L332.501 280.801V291.908L334.001 299.5L347.5 323.5Z" fill="#57003A"/>
<path d="M351 327L915 891.718C818.78 869.502 882.137 992.426 798.056 945.034C713.975 897.642 679.385 884.312 673.71 882.831C661.128 879.547 655.799 870.391 486.452 844.325C274.768 811.743 265.853 797.837 236.281 786.566C205.194 774.718 39.9591 671.632 16.4554 514.801C0 405 -3.47516 373.5 20.8963 286.725C46.0615 197.124 96.3918 146.769 99.3524 137.143C102.182 127.942 168.927 67.5354 205.934 59.3899C242.942 51.2443 271.068 50.5038 309.556 59.3899C349.541 68.6218 366.669 90.4366 373.33 97.1012C381.058 104.832 397.755 151.442 408.858 160.328C417.546 167.283 431.905 180.145 433.901 197.124C435.381 209.712 426.746 231.681 421.319 238.592L407.996 228.966L391.712 225.263H375.429L365.807 228.966L360.626 232.668L351.004 238.592L344.343 246.738L338.422 256.364L335.461 265.25L333.981 272.655L332.5 280.801V291.908L333.981 299.314L338.422 307.5L348.5 324L351 327Z" fill="url(#paint1_linear)" fill-opacity="0.52"/>
<path d="M293.5 229.681C311.5 221 333.367 212.373 363.524 216.913L363.535 216.915C370.762 218.003 383.967 219.991 395 224C407.61 228.582 419 236 420.5 239C414.573 235.07 400.508 229.681 396.241 228.971C392.296 228.316 378.46 228.465 374.192 229.681C369.214 231.099 359.968 232.518 352.855 240.32C345.258 248.655 340.764 255.689 340.053 258.763C338.393 263.255 333 268 333 282.5C333 293.164 334 291 334.5 298.5C312.5 303.5 304.562 309.5 296.668 315.799C281 328.299 271.271 338.32 259.684 371.544C253.994 387.858 245.5 440 248.5 493.5C246.603 492.554 236.266 477 228.5 448.86C217.938 410.588 210.667 316.39 240.591 275.077C265.766 240.32 287.573 231.572 293.5 229.681Z" fill="#420325"/>
<path d="M436.061 200.053C437.573 212.898 432.531 236.824 426.985 243.875L412.616 232.542L399.758 226.498C378.97 215.537 345.65 213.629 321.859 219.698C314.49 221.577 291.76 231.649 287.825 232.542C270.43 246.898 228.735 269.646 224.5 358.5C219.206 469.567 247.5 490.5 247.5 490.5C412.5 452.5 630.661 674.464 641 687.5C652.5 702 683.5 737 685.5 758.5C685.5 781.5 655 793.911 641 799.5C620.931 807.513 585.667 824.519 548 833.5C508.717 842.867 468.5 846.811 439.086 846.811C380.095 843.033 275 826.5 225.808 792.411C170.24 753.902 44.2963 682.855 12.5316 524.188C-10.0725 411.278 4.32941 345.778 15.8316 290.623C27.3338 235.467 90.4133 146.627 96 138C100.762 130.647 155 70.7602 206.145 59.5194C243.96 51.2083 272.7 50.4527 312.027 59.5194C352.886 68.939 370.387 91.1973 377.194 97.9973C385.09 105.886 402.152 153.443 413.497 162.51C422.375 169.605 434.021 182.729 436.061 200.053Z" fill="#480011"/>
<path d="M436.061 200.053C437.573 212.898 432.531 236.824 426.985 243.875L412.616 232.542L399.758 226.498C378.97 215.537 345.65 213.629 321.859 219.698C314.49 221.577 291.76 231.649 287.825 232.542C270.43 246.898 228.735 269.646 224.5 358.5C219.206 469.567 247.5 490.5 247.5 490.5C412.5 452.5 630.661 674.464 641 687.5C652.5 702 683.5 737 685.5 758.5C685.5 781.5 655 793.911 641 799.5C620.931 807.513 585.667 824.519 548 833.5C508.717 842.867 468.5 846.811 439.086 846.811C380.095 843.033 275 826.5 225.808 792.411C170.24 753.902 44.2963 682.855 12.5316 524.188C-10.0725 411.278 4.32941 345.778 15.8316 290.623C27.3338 235.467 90.4133 146.627 96 138C100.762 130.647 155 70.7602 206.145 59.5194C243.96 51.2083 272.7 50.4527 312.027 59.5194C352.886 68.939 370.387 91.1973 377.194 97.9973C385.09 105.886 402.152 153.443 413.497 162.51C422.375 169.605 434.021 182.729 436.061 200.053Z" fill="url(#paint2_linear)" fill-opacity="0.5"/>
<circle cx="235" cy="120" r="16" fill="black"/>
<defs>
<linearGradient id="paint0_linear" x1="1333.53" y1="94.1789" x2="491.955" y2="865.119" gradientUnits="userSpaceOnUse">
<stop stop-color="#FF0000" stop-opacity="0.87"/>
<stop offset="1" stop-color="#FFB800" stop-opacity="0.51"/>
</linearGradient>
<linearGradient id="paint1_linear" x1="458" y1="53" x2="1115.5" y2="621.5" gradientUnits="userSpaceOnUse">
<stop stop-color="#6B0000"/>
<stop offset="0.505208" stop-color="#AA0000" stop-opacity="0.494792"/>
<stop offset="1" stop-color="#FF0F00" stop-opacity="0.78"/>
</linearGradient>
<linearGradient id="paint2_linear" x1="292" y1="-72" x2="881" y2="560" gradientUnits="userSpaceOnUse">
<stop stop-color="#D90034"/>
<stop offset="1" stop-color="#480011" stop-opacity="0"/>
</linearGradient>
</defs>
</svg>
