<svg id="visual" viewBox="0 0 2560 200" width="2560" height="200" xmlns="http://www.w3.org/2000/svg" xmlns:xlink="http://www.w3.org/1999/xlink" version="1.1"><path d="M0 105L61 103.3C122 101.7 244 98.3 365.8 96.8C487.7 95.3 609.3 95.7 731.2 94C853 92.3 975 88.7 1097 82.5C1219 76.3 1341 67.7 1463 60C1585 52.3 1707 45.7 1828.8 49.5C1950.7 53.3 2072.3 67.7 2194.2 69.8C2316 72 2438 62 2499 57L2560 52L2560 201L2499 201C2438 201 2316 201 2194.2 201C2072.3 201 1950.7 201 1828.8 201C1707 201 1585 201 1463 201C1341 201 1219 201 1097 201C975 201 853 201 731.2 201C609.3 201 487.7 201 365.8 201C244 201 122 201 61 201L0 201Z" fill="#a63b0d"></path><path d="M0 94L61 89.3C122 84.7 244 75.3 365.8 73.7C487.7 72 609.3 78 731.2 79.8C853 81.7 975 79.3 1097 78.2C1219 77 1341 77 1463 74.5C1585 72 1707 67 1828.8 72.2C1950.7 77.3 2072.3 92.7 2194.2 93C2316 93.3 2438 78.7 2499 71.3L2560 64L2560 201L2499 201C2438 201 2316 201 2194.2 201C2072.3 201 1950.7 201 1828.8 201C1707 201 1585 201 1463 201C1341 201 1219 201 1097 201C975 201 853 201 731.2 201C609.3 201 487.7 201 365.8 201C244 201 122 201 61 201L0 201Z" fill="#a73316"></path><path d="M0 96L61 101.2C122 106.3 244 116.7 365.8 121C487.7 125.3 609.3 123.7 731.2 124.8C853 126 975 130 1097 125.5C1219 121 1341 108 1463 102.2C1585 96.3 1707 97.7 1828.8 101.2C1950.7 104.7 2072.3 110.3 2194.2 113C2316 115.7 2438 115.3 2499 115.2L2560 115L2560 201L2499 201C2438 201 2316 201 2194.2 201C2072.3 201 1950.7 201 1828.8 201C1707 201 1585 201 1463 201C1341 201 1219 201 1097 201C975 201 853 201 731.2 201C609.3 201 487.7 201 365.8 201C244 201 122 201 61 201L0 201Z" fill="#a82b1d"></path><path d="M0 112L61 112C122 112 244 112 365.8 111.5C487.7 111 609.3 110 731.2 111.8C853 113.7 975 118.3 1097 124.5C1219 130.7 1341 138.3 1463 138C1585 137.7 1707 129.3 1828.8 129C1950.7 128.7 2072.3 136.3 2194.2 134.3C2316 132.3 2438 120.7 2499 114.8L2560 109L2560 201L2499 201C2438 201 2316 201 2194.2 201C2072.3 201 1950.7 201 1828.8 201C1707 201 1585 201 1463 201C1341 201 1219 201 1097 201C975 201 853 201 731.2 201C609.3 201 487.7 201 365.8 201C244 201 122 201 61 201L0 201Z" fill="#a82324"></path><path d="M0 155L61 156.2C122 157.3 244 159.7 365.8 160C487.7 160.3 609.3 158.7 731.2 158.8C853 159 975 161 1097 161.8C1219 162.7 1341 162.3 1463 158C1585 153.7 1707 145.3 1828.8 141C1950.7 136.7 2072.3 136.3 2194.2 136.3C2316 136.3 2438 136.7 2499 136.8L2560 137L2560 201L2499 201C2438 201 2316 201 2194.2 201C2072.3 201 1950.7 201 1828.8 201C1707 201 1585 201 1463 201C1341 201 1219 201 1097 201C975 201 853 201 731.2 201C609.3 201 487.7 201 365.8 201C244 201 122 201 61 201L0 201Z" fill="#a7192b"></path><path d="M0 168L61 167.7C122 167.3 244 166.7 365.8 167.5C487.7 168.3 609.3 170.7 731.2 169.8C853 169 975 165 1097 163.5C1219 162 1341 163 1463 166.3C1585 169.7 1707 175.3 1828.8 174.8C1950.7 174.3 2072.3 167.7 2194.2 165.7C2316 163.7 2438 166.3 2499 167.7L2560 169L2560 201L2499 201C2438 201 2316 201 2194.2 201C2072.3 201 1950.7 201 1828.8 201C1707 201 1585 201 1463 201C1341 201 1219 201 1097 201C975 201 853 201 731.2 201C609.3 201 487.7 201 365.8 201C244 201 122 201 61 201L0 201Z" fill="#a50e31"></path></svg>