<svg width="32" height="32" viewBox="0 0 32 32" fill="none" xmlns="http://www.w3.org/2000/svg">
<path fill-rule="evenodd" clip-rule="evenodd" d="M13 25.93C5.87101 25.93 0.0700073 20.129 0.0700073 13C0.0700073 5.87101 5.87101 0.0700073 13 0.0700073C20.129 0.0700073 25.93 5.87101 25.93 13C25.93 20.129 20.129 25.93 13 25.93ZM13 1.93001C6.89601 1.93001 1.93001 6.89601 1.93001 13C1.93001 19.104 6.89601 24.07 13 24.07C19.104 24.07 24.07 19.104 24.07 13C24.07 6.89601 19.104 1.93001 13 1.93001Z" fill="black"/>
<path fill-rule="evenodd" clip-rule="evenodd" d="M30.293 31.707L21.293 22.707L22.707 21.293L31.707 30.293L30.293 31.707Z" fill="black"/>
</svg>
