<svg width="41" height="41" viewBox="0 0 41 41" fill="none" xmlns="http://www.w3.org/2000/svg">
<g clip-path="url(#clip0)">
<path d="M16.3743 26.5483L17.5986 24.5732C17.8924 24.0998 17.7455 23.4877 17.2721 23.1939C16.8069 22.9 16.1866 23.047 15.8928 23.5203L14.6685 25.4954C12.4486 29.0784 9.28188 31.1351 5.96827 31.1351H1.49572C0.940726 31.1351 0.5 31.584 0.5 32.139C0.5 32.694 0.948888 33.1428 1.49572 33.1428H5.97643C10.0001 33.1265 13.7871 30.727 16.3743 26.5483Z" fill="#69081F"/>
<path d="M40.198 7.31956L35.35 2.4634C34.9582 2.07165 34.3298 2.07165 33.938 2.4634C33.5463 2.85516 33.5463 3.4836 33.938 3.87536L37.0884 7.02574C37.0803 7.02574 37.0803 7.02574 37.0721 7.02574H32.4445C28.429 7.02574 24.6338 9.42525 22.0466 13.604L21.2957 14.8201C21.0019 15.2934 21.1488 15.9056 21.6222 16.1994C21.7854 16.2973 21.965 16.3463 22.1445 16.3463C22.4792 16.3463 22.8056 16.1749 22.9933 15.8729L23.7442 14.6568C25.9642 11.0739 29.1309 9.02533 32.4445 9.02533H37.0639C37.0721 9.02533 37.0721 9.02533 37.0803 9.02533L33.9299 12.1757C33.5381 12.5675 33.5381 13.1959 33.9299 13.5877C34.1258 13.7835 34.3788 13.8815 34.6399 13.8815C34.9011 13.8815 35.1541 13.7835 35.35 13.5877L40.2061 8.73151C40.5897 8.33976 40.5897 7.70315 40.198 7.31956ZM38.0678 8.03778C38.0678 8.02962 38.0678 8.02961 38.0678 8.02145C38.0678 8.01329 38.0678 8.01329 38.0678 8.00513L38.0841 8.02145L38.0678 8.03778Z" fill="#69081F"/>
<path d="M33.9299 37.6889C34.1258 37.8847 34.3788 37.9827 34.64 37.9827C34.9011 37.9827 35.1542 37.8847 35.35 37.6889L40.2062 32.8327C40.5979 32.4409 40.5979 31.8125 40.2062 31.4207L35.35 26.5728C34.9583 26.181 34.3298 26.181 33.9381 26.5728C33.5463 26.9645 33.5463 27.593 33.9381 27.9847L37.0885 31.1351C37.0803 31.1351 37.0803 31.1351 37.0721 31.1351H32.5914C29.286 31.1351 26.1111 29.0784 23.8911 25.4954L16.5294 13.604C13.9422 9.41708 10.147 7.02573 6.1315 7.02573H1.49572C0.940726 7.02573 0.5 7.47461 0.5 8.0296C0.5 8.58459 0.948888 9.03348 1.49572 9.03348H6.12334C9.42879 9.03348 12.6037 11.0902 14.8236 14.665L22.1854 26.5564C24.7726 30.7433 28.5677 33.1428 32.5832 33.1428H37.064C37.0721 33.1428 37.0721 33.1428 37.0803 33.1428L33.9299 36.2932C33.5463 36.6687 33.5463 37.2971 33.9299 37.6889ZM38.0678 32.1145L38.0842 32.1308L38.0678 32.1471C38.0678 32.139 38.0678 32.139 38.0678 32.1308C38.0678 32.1226 38.0678 32.1226 38.0678 32.1145Z" fill="#69081F"/>
</g>
<defs>
<clipPath id="clip0">
<rect width="40" height="40" fill="white" transform="translate(0.5 0.0761414)"/>
</clipPath>
</defs>
</svg>
